<svg width="275" height="119" viewBox="0 0 275 119" fill="none" xmlns="http://www.w3.org/2000/svg">
<path d="M124.062 11.7332C124.035 12.2905 124.062 12.8605 124.147 13.4109C122.95 14.413 122.198 15.7104 121.961 17.1317C121.397 16.5581 121.048 15.7721 121.048 14.9045C121.048 13.2045 122.384 11.8199 124.062 11.7332ZM124.875 15.6112C125.202 16.3425 125.585 16.9903 126.003 17.5426C125.496 17.8843 124.886 18.0842 124.228 18.0842C124.137 18.0842 124.048 18.0781 123.959 18.0707C123.958 17.0283 124.362 16.2177 124.875 15.6112ZM127.049 13.4401C127.277 13.8788 127.408 14.3759 127.408 14.9045C127.408 15.5287 127.225 16.1092 126.914 16.6008C126.486 15.8672 126.233 14.988 126.233 14.1153C126.484 13.8398 126.76 13.6205 127.049 13.4401ZM128.568 12.8827C129.817 12.6926 131.037 13.0677 131.608 13.6247C132.47 14.4663 133.081 15.792 132.616 17.0779C132.031 18.6977 129.821 18.5154 129.01 18.3188C128.603 18.22 128.224 18.0211 127.884 17.7498C128.78 16.5488 129.08 14.8322 128.568 12.8827ZM239.493 20.1978C240.872 20.355 242.51 20.4714 243.291 22.0962C243.827 23.2105 243.202 24.6188 241.988 25.5036C236.823 29.2643 224.835 26.9253 221.303 25.9028C227.122 21.4711 232.891 19.4466 239.493 20.1978ZM181.892 19.3951C184.293 21.2843 178.859 30.1467 168.068 34.922C170.627 28.622 176.01 22.8961 181.892 19.3951ZM197.518 53.7529C198.314 54.2431 197.984 55.5489 197.553 56.3901C195.352 60.6901 191.863 63.4886 187.253 64.9187C188.91 60.7559 195.086 52.2561 197.518 53.7529ZM104.275 80.6116C102.861 77.8219 112.44 71.4065 117.425 68.8769C115.603 74.6413 106.629 85.2585 104.275 80.6116ZM87.9978 43.2128H104.134V41.1135H89.5471C90.143 40.2937 90.4625 39.8351 90.4574 39.8337C99.6542 28.6795 105.548 14.7487 121.199 10.9444C118.222 14.2214 118.865 16.643 121.843 19.0825C122.157 19.339 122.903 28.0415 133.249 32.833C138.502 35.2661 146.46 37.5286 152.19 38.0595C154.892 38.3104 155.634 39.2874 154.024 41.7864C151.939 45.0259 150.107 48.4272 148.138 51.7432C147.487 52.8399 147.056 54.2593 145.793 54.7281C140.691 56.6219 135.541 58.3864 129.821 60.4063C130.649 57.4441 131.17 55.0666 132.001 52.8028C132.52 51.3875 132.704 48.9874 134.652 49.2702C136.302 49.5095 136.322 51.7363 135.522 52.9373C138.271 51.5879 138.698 49.312 136.568 47.3769C134.185 45.2104 130.409 45.2262 128.045 47.7975C124.22 51.9561 120.013 55.6787 115.451 58.9391C108.439 63.9504 102.798 67.2544 94.3516 71.3754C93.5128 71.7849 92.4926 72.2333 91.7159 71.5034C90.9549 70.7884 91.6463 69.8619 92.1003 69.3105C97.2285 63.0796 102.317 56.8102 107.646 50.7527C109.76 48.3493 109.61 46.4244 106.469 45.4659C103.784 44.647 101.475 45.2165 99.6356 47.6009C95.4942 52.9707 91.2332 58.2482 87.0301 63.5707C85.1298 65.9769 82.9392 68.8769 82.5232 71.4774C82.0679 74.3209 83.0185 76.4725 85.9028 76.4048C87.1562 76.3756 88.4755 76.0812 89.6352 75.5966C99.1664 71.6152 105.014 67.1765 116.396 60.3979C118.007 59.439 119.083 58.4188 122.126 57.3527C119.732 61.6704 118.221 66.3984 117.889 66.5904C114.571 68.512 100.183 77.0211 102.453 81.5581C104.769 86.4252 114.359 81.2247 114.751 80.9961C121.464 77.0823 124.456 74.8347 127.103 66.8964C127.875 64.5811 129.278 63.0777 131.315 62.0205C135.169 60.0205 139.298 58.9442 143.7 58.1916C143.633 59.7627 135.949 72.2718 133.038 77.7371C131.819 80.0241 132.672 81.189 134.766 82.0779C137.442 83.214 139.318 82.1887 140.725 79.9597C142.843 76.6042 144.879 73.1194 147.091 69.9425C151.315 63.8744 160.877 56.7838 162.431 57.3087C162.033 59.2507 160.836 60.7193 159.943 62.3293C157.956 65.912 155.826 69.4672 155.062 73.5372C154.118 78.5625 157.332 81.1871 162.173 79.5126C163.163 79.17 171.487 74.2041 175.063 72.5996C175.548 79.5799 177.75 81.1936 184.346 79.7691C190.898 78.3538 200.405 71.2094 205.635 67.9657C203.959 70.8955 202.528 73.285 201.215 75.7371C200.432 77.1982 198.528 78.7345 199.923 80.4002C201.465 82.2407 203.75 81.5145 205.821 80.85C207.635 80.2685 208.711 78.9947 209.638 77.4436C211.679 74.0302 213.766 70.6441 215.857 67.2609C221.659 57.8716 230.001 51.5322 240.021 47.2401C242.366 46.2357 244.812 45.6612 246.835 47.8457C247.853 48.9447 248.636 49.2396 249.631 47.9695C250.561 46.7829 251.23 45.5545 249.853 44.2617C248.411 42.9081 246.683 42.8984 244.912 43.4159C237.537 45.5703 230.837 49.043 224.762 53.7395C223.644 54.6029 222.906 55.8531 221.078 54.0673C219.273 52.3034 215.073 53.4024 213.389 55.4511C208.847 60.9767 204.055 67.2122 198.04 71.1496C194.055 73.758 190.239 76.3255 185.466 77.5252C184.364 77.802 183.089 77.9703 182.656 76.185C182.163 74.1503 185.429 68.0014 187.439 67.2192C192.042 65.4274 195.858 62.6265 198.53 58.4415C199.672 56.6516 200.66 54.6159 199.379 52.5283C198.015 50.3038 195.837 49.6194 193.286 50.0627C190.576 50.5338 188.175 51.6092 186.078 53.4302C182.44 56.5895 180.091 60.6632 178.354 65.0035C175.941 71.0355 170.663 73.5011 165.48 76.1637C164.492 76.6719 163 77.4106 162.206 76.5324C161.29 75.5201 162.212 74.0747 162.79 72.9956C165.106 68.6683 167.553 64.4109 169.902 60.1002C171.281 57.5698 173.541 54.7949 170.491 52.1986C165.674 48.098 156.025 59.0142 151.681 61.6574C155.799 54.5083 159.52 48.0215 163.274 41.5536C164.09 40.1472 164.909 38.7732 166.496 37.9631C169.097 36.6359 171.652 35.2017 174.134 33.6635C178.803 30.77 182.641 27.1173 184.551 21.7679C185.167 20.0424 185.582 18.2321 184.332 16.8099C183.088 15.3946 181.199 15.3793 179.405 15.799C176.649 16.4436 174.037 17.4155 171.74 19.1373C166.612 22.9796 162.539 27.8013 159.225 33.2063C157.655 35.7651 155.829 36.6049 152.923 36.3813C146.536 35.8898 140.371 34.4616 134.639 31.7308C127.408 28.2859 124.228 21.7429 124.228 19.5314C125.324 19.4962 126.267 19.1683 127.01 18.6174C127.496 19.0218 128.01 19.2986 128.53 19.422C129.241 19.5903 129.859 19.6626 130.396 19.6626C132.13 19.6626 133.016 18.9054 133.468 18.1686C134.528 16.4398 133.931 13.691 132.735 12.739C131.292 11.5899 129.733 11.2542 128.102 11.5495C127.865 11.0033 127.569 10.4454 127.203 9.87971C128.25 8.22889 132.728 5.36407 134.624 4.66711C145.881 0.529407 157.243 1.75685 168.54 4.13338C176.517 5.81202 183.505 9.48091 190.466 13.5931C198.092 18.0976 207.255 22.4955 215.755 26.0999C215.061 26.6091 206.307 33.3918 193.44 30.5771C192.494 30.3702 190.693 29.5713 190.587 31.2745C190.504 32.6095 192.373 32.5019 193.439 32.6118C200.533 33.3436 207.59 32.8557 214.015 29.6918C215.912 28.7574 219.051 27.3839 219.051 27.3839C219.051 27.3839 233.411 31.5114 241.145 27.5759C243.425 26.4152 245.579 25.524 245.459 22.7955C245.351 20.3369 243.564 18.9068 241.203 18.271C239.479 17.8073 237.752 17.7957 235.98 17.9808C230.287 18.5743 222.788 21.4317 218.048 24.6323C218.048 24.6323 215.977 24.2859 214.689 23.767C205.821 20.1959 198.282 16.3471 189.235 11.0302C177.537 4.04528 164.833 0.488137 155.124 0.100473C144.681 -0.316404 134.46 0.265555 126.092 7.70907C124.915 8.75613 123.953 8.22843 122.888 7.86302C117.313 5.95253 111.998 6.87531 106.971 9.56485C102.209 12.1129 98.0131 15.4577 94.0516 19.1553C91.0361 21.971 82.9605 32.3378 76.2413 41.1135H54.5048V43.2128H74.6364C70.6944 48.3753 67.4517 52.6688 66.368 54.0126C63.3631 57.7386 60.1691 61.3124 57.1716 65.0439C53.1211 70.0863 48.4492 74.4419 43.5412 78.6552C31.3906 87.8446 4.60701 83.3197 3.25529 65.2553C4.36495 65.3861 5.26363 65.5586 6.16647 65.585C8.10062 65.6411 8.95153 64.8236 7.70183 63.0587C4.933 59.1487 4.73453 54.5306 3.90402 50.0776C3.74497 49.2239 4.05287 47.9844 2.68585 47.9338C1.48808 47.8898 1.24509 49.0685 0.980312 49.8874C0.0700443 52.7036 -0.0226982 55.6736 0.0037334 58.576C0.102968 69.4603 4.14608 78.5871 14.338 83.1709C24.3027 87.6526 34.9463 87.3039 45.1591 83.3591C60.7046 78.1424 81.0398 52.5102 87.9978 43.2128Z" fill="white"/>
<path d="M210.186 111.789C207.117 114.169 203.735 115.596 199.955 115.97C195.143 116.445 193.257 113.558 195.313 109.161C196.886 105.793 199.88 103.051 202.177 100.856C214.563 89.0197 228.826 84.6632 230.928 85.0355C230.615 87.809 217.367 106.217 210.186 111.789ZM274.537 60.3475C273.454 59.5109 272.991 60.8844 272.421 61.4993C271.95 62.008 271.644 62.6651 271.232 63.2331C265.488 71.1538 257.284 74.7332 247.416 76.8881C251.695 69.4436 255.563 62.6085 261.007 56.7968C255.6 53.184 252.611 53.7808 249.304 58.7602C245.024 65.203 239.621 70.3836 232.094 73.2535C234.671 67.4984 237.524 61.9412 241.33 56.9229C241.888 56.1866 243.305 55.7548 242.224 54.3836C240.601 52.3234 233.976 52.4727 232.734 54.8831C229.417 61.3189 226.329 67.874 223.231 74.4202C222.666 75.6133 222.71 76.9818 223.795 78.001C224.928 79.0643 226.31 79.3268 227.694 78.6358C229.468 77.7506 231.167 76.7147 232.892 75.7325C235.006 74.5283 237.114 73.3124 239.95 71.6852C238.29 74.6641 237.057 76.7838 235.921 78.9535C235.376 79.995 234.512 80.506 233.474 80.767C219.918 84.1781 208.987 92.0594 198.769 101.144C196.3 103.34 194.316 105.946 192.949 108.958C191.026 113.199 192.457 116.412 196.943 117.537C205.447 119.67 213.358 117.916 220.07 112.49C227.853 106.198 234.04 98.2676 238.877 89.6096C242.298 83.4858 246.517 79.7177 253.245 77.5252C261.509 74.8315 269.011 70.3562 273.949 62.6822C274.406 61.9714 275.653 61.2076 274.537 60.3475Z" fill="white"/>
<path d="M113.318 40.9068C115.992 38.1175 118.84 35.6237 122.903 34.763C118.977 33.0019 109.521 35.108 107.193 37.958C106.859 38.367 106.53 39.0144 106.612 39.4781C106.768 40.3582 112.642 41.6125 113.318 40.9068Z" fill="white"/>
<path d="M17.9363 65.0295H18.9078V53.4279H23.6126V52.6257H13.2314V53.4279H17.9363V65.0295Z" fill="white"/>
<path d="M28.2889 59.1487H36.5847V65.0295H37.5557V52.6257H36.5847V58.3465H28.2889V52.6257H27.3174V65.0295H28.2889V59.1487Z" fill="white"/>
<path d="M49.6279 64.2278H43.6307V59.2109H49.3246V58.4091H43.6307V53.4279H49.4762V52.6257H42.6592V65.0295H49.6279V64.2278Z" fill="white"/>
</svg>
